<svg width="31" height="32" viewBox="0 0 31 32" fill="none" xmlns="http://www.w3.org/2000/svg">
<g clip-path="url(#clip0_4_168)">
<path d="M23.2553 3.47656H7.34027C7.40286 2.59177 7.97731 2.08008 8.91602 2.08008H21.6699C22.6086 2.08008 23.1917 2.59177 23.2553 3.47656Z" fill="black"/>
<path d="M25.7757 6.89437C25.4256 6.84087 25.0548 6.81641 24.668 6.81641H5.91794C5.53103 6.81641 5.16021 6.84065 4.8103 6.89376C4.94311 5.85538 5.6586 5.27344 6.80661 5.27344H23.7793C24.9275 5.27344 25.6431 5.85561 25.7757 6.89437Z" fill="black"/>
<path d="M5.91797 29.4824H24.668C27.1875 29.4824 28.4668 28.2031 28.4668 25.7129V12.6953C28.4668 10.2051 27.1875 8.93555 24.668 8.93555H5.91797C3.38867 8.93555 2.11914 10.1953 2.11914 12.6953V25.7129C2.11914 28.2129 3.38867 29.4824 5.91797 29.4824ZM5.94727 27.7539C4.58984 27.7539 3.84766 27.0312 3.84766 25.625V12.7832C3.84766 11.3867 4.58984 10.6641 5.94727 10.6641H24.6387C25.9766 10.6641 26.7383 11.3867 26.7383 12.7832V25.625C26.7383 27.0312 25.9766 27.7539 24.6387 27.7539H5.94727Z" fill="black"/>
</g>
<defs>
<clipPath id="clip0_4_168">
<rect width="30.9473" height="31.5918" fill="white"/>
</clipPath>
</defs>
</svg>
